<svg xmlns:xlink="http://www.w3.org/1999/xlink" xmlns="http://www.w3.org/2000/svg" fill="none" stroke="currentColor" stroke-linecap="round" stroke-linejoin="round" stroke-width="2" viewBox="0 0 24 24" width="1" height="1"><path stroke="none" d="M0 0h24v24H0z" fill="none" stroke-width="2px"></path><path d="M9 17 A2 2 0 0 1 7 19 A2 2 0 0 1 5 17 A2 2 0 0 1 9 17 z" stroke="#1F2937" fill="none" stroke-width="2px"></path><path d="M19 17 A2 2 0 0 1 17 19 A2 2 0 0 1 15 17 A2 2 0 0 1 19 17 z" stroke="#1F2937" fill="none" stroke-width="2px"></path><path d="M5 17H3v-4M2 5h11v12m-4 0h6m4 0h2v-6h-8m0-5h5l3 5M3 9h4" stroke="#1F2937" fill="none" stroke-width="2px"></path></svg>